<svg width="120" height="42" viewBox="0 0 120 42" fill="none" xmlns="http://www.w3.org/2000/svg">
<path d="M20.8163 2.47063C16.0007 2.63266 11.441 4.69718 8.12024 8.21916C4.79943 11.7411 2.98346 16.4385 3.06377 21.2986C3.14409 26.1588 5.11427 30.7924 8.54959 34.2008C11.9849 37.6091 16.6103 39.5192 21.4286 39.5192C26.2469 39.5192 30.8722 37.6091 34.3075 34.2008C37.7429 30.7924 39.7131 26.1588 39.7934 21.2986C39.8737 16.4385 38.0577 11.7411 34.7369 8.21916C31.4161 4.69718 26.8564 2.63266 22.0408 2.47063H20.8163ZM46.5306 2.47063C41.715 2.63266 37.1553 4.69718 33.8345 8.21916C30.5137 11.7411 28.6977 16.4385 28.7781 21.2986C28.8584 26.1588 30.8286 30.7924 34.2639 34.2008C37.6992 37.6091 42.3246 39.5192 47.1429 39.5192C51.9612 39.5192 56.5865 37.6091 60.0218 34.2008C63.4572 30.7924 65.4273 26.1588 65.5077 21.2986C65.588 16.4385 63.772 11.7411 60.4512 8.21916C57.1304 4.69718 52.5707 2.63266 47.7551 2.47063H46.5306ZM72.2449 2.47063C67.4293 2.63266 62.8696 4.69718 59.5488 8.21916C56.228 11.7411 54.412 16.4385 54.4924 21.2986C54.5727 26.1588 56.5428 30.7924 59.9782 34.2008C63.4135 37.6091 68.0389 39.5192 72.8572 39.5192C77.6755 39.5192 82.3008 37.6091 85.7361 34.2008C89.1715 30.7924 91.1416 26.1588 91.222 21.2986C91.3023 16.4385 89.4863 11.7411 86.1655 8.21916C82.8447 4.69718 78.285 2.63266 73.4694 2.47063H72.2449ZM97.9592 2.47063C93.1436 2.63266 88.5839 4.69718 85.2631 8.21916C81.9423 11.7411 80.1263 16.4385 80.2066 21.2986C80.287 26.1588 82.2571 30.7924 85.6925 34.2008C89.1278 37.6091 93.7531 39.5192 98.5714 39.5192C103.39 39.5192 108.015 37.6091 111.45 34.2008C114.886 30.7924 116.856 26.1588 116.936 21.2986C117.017 16.4385 115.201 11.7411 111.88 8.21916C108.559 4.69718 103.999 2.63266 99.1837 2.47063H97.9592Z" stroke="white" stroke-width="2.88235"/>
</svg>
