<svg width="120" height="120" viewBox="0 0 120 120" fill="none" xmlns="http://www.w3.org/2000/svg">
<path d="M119.525 48.92H79.6001V41.23C79.6008 41.1265 79.581 41.0239 79.5418 40.928C79.5027 40.8322 79.445 40.7451 79.372 40.6717C79.299 40.5982 79.2123 40.54 79.1167 40.5002C79.0211 40.4605 78.9186 40.44 78.8151 40.44H41.1901C41.0866 40.44 40.9841 40.4605 40.8886 40.5002C40.793 40.54 40.7062 40.5982 40.6333 40.6717C40.5603 40.7451 40.5026 40.8322 40.4635 40.928C40.4243 41.0239 40.4045 41.1265 40.4051 41.23V48.92H11.7901C11.3551 48.92 10.8251 49.27 10.6051 49.71L0.100142 70.29C-0.124858 70.73 0.0451417 71.075 0.485142 71.075H40.4001V78.775C40.4001 79.205 40.7501 79.56 41.1851 79.56H78.8101C79.2451 79.56 79.5951 79.21 79.5951 78.775V71.075H108.21C108.645 71.075 109.175 70.725 109.4 70.29L119.9 49.71C120.125 49.275 119.955 48.92 119.52 48.92M107.05 53.9L100.83 66.085H74.6701V74.625H45.3501V66.085H12.9751L19.2001 53.9H45.3601V45.365H74.6801V53.9H107.05Z" fill="white"/>
</svg>
