<svg width="120" height="120" viewBox="0 0 120 120" fill="none" xmlns="http://www.w3.org/2000/svg">
<g clip-path="url(#clip0_2102_659)">
<path d="M105.875 31.25C108.32 36.99 109.505 43.46 109.505 51.03C109.505 55.12 109.165 59.48 108.475 64.36C107.045 74.41 103.235 84.91 99.725 91.83C99.155 92.945 98.7 93.685 97.785 94.495C96.185 95.905 94.775 96.255 94.255 95.95C93.835 95.7 93.6 94.44 93.685 92.585C93.755 91.005 94.13 89.835 94.705 87.965C97.3935 79.1048 99.3994 70.0516 100.705 60.885C102.63 47.565 102.555 35.585 99.7 28.285C99.4115 27.5357 99.0427 26.8199 98.6 26.15C98.29 25.7 98.07 25.47 98.07 25.47C92.165 19.555 76.22 16.59 60.27 16.59C44.32 16.59 28.38 19.555 22.48 25.47C22.48 25.47 22.255 25.695 21.95 26.15C21.5023 26.8159 21.1316 27.5305 20.845 28.28C17.985 35.58 17.915 47.565 19.84 60.885C21.14 69.92 23.2 79.485 25.975 88.405C26.455 89.94 26.765 90.985 26.84 92.605C26.92 94.45 26.69 95.705 26.27 95.955C25.75 96.255 24.325 95.905 22.72 94.48C21.57 93.455 20.995 92.455 20.27 90.975C16.87 84.05 13.305 73.99 11.935 64.36C11.2771 59.9466 10.9329 55.4921 10.905 51.03C10.905 43.46 12.095 36.995 14.535 31.26C16.37 26.96 19.45 23.36 23.445 20.845C33.2633 14.6353 44.4822 10.9873 56.075 10.235C57.4318 10.1518 58.7907 10.1085 60.15 10.105H60.25C61.62 10.105 62.99 10.155 64.34 10.235C75.75 10.925 87.035 14.6 96.965 20.845C100.927 23.325 104.036 26.9525 105.875 31.25ZM82.06 103.88C81.62 103.975 80.255 104.295 78.9 104.665C77.685 105 76.485 105.265 75.915 105.38C70.7801 106.347 65.5651 106.824 60.34 106.805H60.2C54.615 106.805 49.315 106.29 44.63 105.38C43.69 105.188 42.7562 104.966 41.83 104.715C40.8286 104.447 39.8217 104.201 38.81 103.975C36.72 103.5 34.83 103.16 34.725 103.56C34.6 104.025 35.535 105 36.73 105.92C37.01 106.13 37.705 106.62 38.515 107.02C39.265 107.385 40.115 107.66 40.445 107.77C45.935 109.545 52.175 110.28 60.15 110.28H60.26C68.075 110.28 74.23 109.57 79.645 107.865C81.5 107.28 82.595 106.81 83.91 105.765C85.01 104.895 85.835 104 85.715 103.565C85.615 103.19 83.975 103.46 82.06 103.88ZM69.52 52.315C68.795 48.265 67.92 45.155 66.93 43.065L66.92 43.045H66.815L63.405 43.015H63.355L63.22 58.005H70.35L70.345 57.955C70.345 57.93 70.065 55.345 69.52 52.315ZM98.32 60.75C96.71 71.89 93.92 83.865 90.02 94.255C89.37 96.005 88.78 96.655 87.37 97.755C83.7319 100.317 79.5873 102.069 75.215 102.895C70.73 103.77 65.675 104.255 60.345 104.255H60.2C55.213 104.276 50.2354 103.821 45.335 102.895C40.9592 102.071 36.811 100.318 33.17 97.755C31.76 96.655 31.175 96.005 30.535 94.255C26.625 83.865 23.835 71.89 22.23 60.75C20.365 47.865 20.48 36.515 23.13 29.74C23.465 28.89 23.82 28.28 24.08 27.895C24.31 27.57 24.47 27.395 24.47 27.395C29.81 22.045 44.77 19.135 60.27 19.135C75.775 19.135 90.735 22.045 96.07 27.4C96.07 27.4 96.23 27.565 96.46 27.9C96.72 28.28 97.08 28.885 97.41 29.74C100.065 36.515 100.18 47.865 98.32 60.75ZM44.52 37.825L31.11 37.75L32.445 84.435L38.055 84.495L37.975 63.245H43.045V57.76H37.975V43.3H44.525V37.82L44.52 37.825ZM53.9 37.725L47.075 37.74L47.98 84.49H53.765L53.9 37.725ZM71.14 37.795H57.48L58.02 84.465H63.48L63.525 63.355H70.615L70.625 63.39C71.265 67.375 71.315 84.245 71.315 84.415V84.49H76.63L76.675 82.095C76.915 69.995 77.325 49.75 71.14 37.795ZM92.74 37.73L76.02 37.795V43.18H81.01V43.23L80.8 84.49H86.46L87.835 43.18H92.74V37.73ZM119.875 60C119.875 93.085 93.015 120 59.995 120C26.985 120 0.125 93.085 0.125 60C0.125 26.915 26.985 0 60 0C93.02 0 119.875 26.915 119.875 60ZM118.225 59.96C118.2 27.805 92.09 1.65 59.99 1.65C28.21 1.65 2.3 27.315 1.79 59.055C2.49864 57.4322 3.69365 56.0695 5.21 55.155C8.485 53.215 9.38 48.23 9.675 45.25L9.735 44.94C9.54 46.915 9.385 48.89 9.385 51.03C9.385 55.19 9.735 59.62 10.435 64.57C12.495 79.07 19.5 94.605 23.62 99.36L23.85 99.61L24.81 100.62L24.845 100.65C34.895 108.885 44.13 111.8 60.15 111.8H60.26C76.275 111.8 85.51 108.885 95.56 100.65L95.605 100.62L96.53 99.635L96.79 99.355C100.92 94.585 107.92 79.07 109.98 64.57C110.68 59.62 111.025 55.19 111.025 51.03C111.025 48.76 110.92 46.58 110.705 44.485L110.735 44.515C111.035 47.5 112.63 55.22 115.71 57.445C116.76 58.205 117.585 59.03 118.225 59.96Z" fill="white"/>
</g>
<defs>
<clipPath id="clip0_2102_659">
<rect width="120" height="120" fill="white"/>
</clipPath>
</defs>
</svg>
