<svg width="120" height="46" viewBox="0 0 120 46" fill="none" xmlns="http://www.w3.org/2000/svg">
<g clip-path="url(#clip0_2102_670)">
<path d="M99.4096 32.4772C99.4362 32.6482 99.6601 32.812 99.8768 32.8895C99.9567 32.9163 99.9958 32.9697 99.9123 33.1514C99.2941 34.4804 98.7255 35.2466 97.9504 36.4014C97.2371 37.4684 96.434 38.3008 95.4617 39.1015C93.9949 40.3186 91.958 41.6434 90.274 40.7528C89.5261 40.3636 89.2024 39.3138 89.2168 38.464C89.2524 36.0742 90.3126 33.6209 92.2703 31.2097C94.657 28.2634 97.2954 26.7352 99.027 27.5705C100.818 28.4273 100.247 30.5072 99.4444 32.1397C99.3823 32.2662 99.3823 32.3731 99.4089 32.4764M118.634 13.8564C118.762 13.6283 118.627 13.4618 118.34 13.4618C116.843 13.4618 114.88 13.4652 113.321 13.4652C112.95 13.4652 112.758 13.5097 112.583 13.857C112.007 14.9627 104.994 25.5023 103.689 27.549C103.468 27.8608 103.2 27.817 103.169 27.4599C103.037 26.2442 101.99 24.8468 100.34 24.1782C99.0831 23.667 97.8542 23.5743 96.5765 23.7444C94.2698 24.0552 92.2148 25.2754 90.4081 26.6515C87.685 28.7272 85.3356 31.4178 82.3027 33.4057C80.6471 34.4879 78.3798 35.4317 76.8627 34.0229C75.4897 32.7464 75.6448 29.9115 77.7456 27.7188C77.9667 27.489 78.2323 27.683 78.1905 27.887C77.9925 28.8786 78.2349 29.8648 78.9864 30.5563C79.9028 31.3801 81.2145 31.4731 82.3371 30.9232C83.6618 30.265 84.4403 28.9941 84.6671 27.5516C85.018 25.314 83.3004 23.3405 81.1511 23.1821C79.405 23.0592 77.7306 23.6684 76.0991 25.0187C75.281 25.6992 74.8165 26.2018 74.109 27.2107C73.9367 27.4592 73.6719 27.4841 73.6799 27.1171C73.7598 24.2523 72.5793 22.6405 70.2175 22.5879C68.3839 22.5434 66.4255 23.5414 64.8987 24.7619C63.2252 26.1096 61.7619 27.8957 60.193 29.5739C59.9976 29.7806 59.8279 29.7707 59.7729 29.3699C59.7285 27.4718 59.2497 25.6333 58.3737 24.3277C58.0637 23.8735 57.4111 23.6489 56.8629 23.9553C56.6097 24.0943 55.7292 24.5005 55.0879 25.0181C54.7699 25.2809 54.6455 25.6613 54.7868 26.1487C55.6324 28.9845 55.4467 32.2087 54.2991 34.9318C53.2454 37.4259 51.1981 39.6753 48.7914 40.4367C47.2061 40.9408 45.558 40.6941 44.5382 39.2847C43.1376 37.3396 43.7031 33.9568 45.7911 31.148C47.6336 28.6746 50.2989 27.1036 52.9573 26.0919C53.2699 25.9708 53.3348 25.7695 53.246 25.5032C53.1021 25.065 52.8711 24.4681 52.7778 24.1957C52.5336 23.5446 51.8511 23.4395 51.0173 23.5303C49.0858 23.7557 47.3432 24.4193 45.622 25.3435C41.1149 27.7637 38.8551 32.4477 37.8649 34.9536C37.3879 36.1574 36.9802 36.9083 36.4533 37.5742C35.7427 38.4697 34.8507 39.285 33.2198 40.7213C33.0723 40.8531 32.9622 41.1274 33.0865 41.383C33.2526 41.7286 34.101 42.9299 34.3402 43.037C34.6058 43.1679 34.914 42.9835 35.0374 42.8962C36.1787 42.1204 37.5441 40.8909 38.2123 40.057C38.4468 39.771 38.6875 39.8913 38.8119 40.3251C39.4354 42.5558 41.0682 44.3773 43.3259 45.1393C47.4586 46.5367 51.745 44.5139 54.9806 40.9924C57.0369 38.7541 57.7789 37.3145 58.5671 36.336C59.9029 34.6765 62.5377 30.964 65.676 28.5804C66.8269 27.7013 68.1888 27.0308 68.8736 27.4762C69.4234 27.8333 69.6011 28.6633 68.7191 30.2717C65.5193 36.1306 60.8116 43.0143 59.9483 44.6836C59.7901 44.973 59.9305 45.201 60.2307 45.201C61.9051 45.1927 63.5648 45.1969 65.0847 45.1969C65.3378 45.188 65.4507 45.0686 65.5778 44.8896C68.0333 41.0353 70.3441 37.367 72.8211 33.5742C72.9597 33.3507 73.0875 33.5207 73.0929 33.6187C73.1462 34.4987 73.3593 35.7022 73.8807 36.4926C74.8171 37.9537 76.1439 38.5816 77.6154 38.5912C78.7863 38.609 79.3788 38.4263 80.6414 37.9534C81.6689 37.5713 82.4936 37.0698 83.1266 36.616C83.4962 36.3577 83.561 36.7897 83.5521 36.8556C82.9836 39.9154 83.6854 43.5409 86.7181 45.0441C90.3474 46.8385 94.3345 44.3164 96.6288 42.0396C96.8535 41.8205 97.0942 41.8436 97.1173 42.3166C97.1706 43.1859 97.5578 44.2174 98.275 44.9393C100.198 46.8741 104.077 46.1073 107.971 43.0855C110.47 41.1508 113.086 38.4174 115.448 35.5229C115.537 35.4107 115.601 35.2308 115.431 35.0482C115.071 34.6705 114.55 34.2385 114.194 33.9059C114.031 33.7669 113.792 33.8069 113.655 33.9106C111.234 36.2202 109.054 38.854 105.903 41.0321C104.84 41.7758 103.147 42.3758 102.386 41.3431C102.089 40.9422 102.123 40.388 102.413 39.6605C103.331 37.3634 117.875 15.1594 118.63 13.8498" fill="white"/>
<path d="M50.2064 16.5357C50.2686 16.8652 50.3966 16.9294 50.5458 16.9018C51.2866 16.7531 52.0974 16.142 52.5774 15.4337C53.0144 14.7915 53.2195 13.8648 52.7852 13.4935C52.3979 13.1595 51.7673 13.2538 51.2998 13.668C50.3688 14.4928 50.0862 15.663 50.2062 16.5364M13.1375 45.1178C7.71458 45.1534 2.93709 41.7953 2.38886 35.9778C2.08419 32.7541 2.99289 29.8812 4.81212 27.5142C6.42643 25.4052 9.15796 23.653 11.4701 23.225C12.2224 23.0869 13.2334 23.1715 13.6513 23.6739C14.3068 24.439 14.1184 25.2794 13.4629 25.6148C11.6989 26.5178 9.57636 28.0639 8.52609 30.1751C7.67426 31.8982 7.50215 33.9748 8.80327 35.9531C10.981 39.2501 17.0514 39.3407 22.6956 34.0827C24.0935 32.7958 25.3444 31.5594 26.6159 30.0949C29.1018 27.2447 29.9287 26.2061 33.2332 21.6098C33.2687 21.5564 33.2865 21.4868 33.2687 21.453C33.2421 21.3906 33.1977 21.3817 33.0992 21.3728C30.8932 21.4351 28.9699 22.0935 27.1004 23.4943C26.5622 23.888 25.7873 23.8328 25.4481 23.3144C25.0706 22.7283 25.3416 21.9654 25.9625 21.5345C28.9697 19.4373 32.2549 19.057 35.6097 18.4892C35.6069 18.4892 35.8425 18.4981 36.0343 18.2451C37.4115 16.4728 38.4514 14.8742 39.9195 13.0818C41.3987 11.2633 43.3094 9.59339 44.7693 8.33903C46.807 6.58206 48.1139 5.9908 49.442 5.26614C49.792 5.08266 49.3976 4.86358 49.291 4.86358C41.8759 3.46608 34.1684 1.65772 26.8043 4.39143C21.7041 6.29991 19.4691 10.3555 20.5441 13.0654C21.3089 14.9877 23.8301 15.3002 26.1906 14.1419C28.151 13.1787 29.9653 11.6263 31.2514 9.62799C31.9709 8.51819 33.487 9.31888 32.6679 11.246C30.5129 16.3249 26.3961 20.3535 21.3813 20.5236C17.1135 20.6626 14.36 17.5143 14.3689 13.6302C14.3867 5.9694 22.8916 0.92303 31.83 0.168616C42.5944 -0.723411 52.7899 2.1518 63.4778 3.45176C71.6666 4.44613 79.5176 4.46681 87.7485 2.5708C88.7215 2.35882 89.4042 2.98139 89.3407 3.96685C89.2608 5.39133 88.1601 6.76324 85.4493 8.2458C82.3662 9.94132 79.1409 10.4558 75.7723 10.4834C67.6269 10.5547 60.0395 7.36763 52.1879 5.65688C52.1967 6.00157 52.2874 6.41211 51.9996 6.62971C47.6504 9.84644 43.7192 13.1131 41.0863 17.7011C40.9975 17.8071 41.0419 17.9078 41.1991 17.8971C43.4851 17.775 45.5408 17.7162 47.675 17.5452C48.0481 17.5096 48.0622 17.4205 48.0293 17.1479C47.8401 15.5665 48.3011 13.7632 49.6884 12.5227C51.1083 11.2462 52.8861 11.101 54.0646 12.0204C55.4045 13.0673 55.2858 14.9501 54.5531 16.3621C53.807 17.7948 52.5747 18.5611 51.3921 18.9331C51.3921 18.9331 51.1434 18.9866 51.1807 19.2128C51.2251 19.5744 52.8385 20.4698 52.9764 20.7083C53.1096 20.9355 53.0386 21.2873 52.7961 21.5572C52.6256 21.7532 52.3582 21.9367 52.0163 21.9304C51.74 21.9249 51.5722 21.8289 51.2186 21.6374C50.4956 21.2446 49.592 20.5988 48.9892 19.8374C48.784 19.58 48.6791 19.5748 48.1666 19.6033C45.8572 19.7369 42.2562 20.086 39.8165 20.3915C39.2249 20.4628 39.1378 20.5758 39.0161 20.7816C35.1262 27.2137 30.9728 34.15 26.4126 38.794C21.5213 43.7733 17.4556 45.0843 13.1395 45.1182" fill="white"/>
</g>
<defs>
<clipPath id="clip0_2102_670">
<rect width="120" height="46" fill="white"/>
</clipPath>
</defs>
</svg>
