<svg width="67" height="65" viewBox="0 0 67 65" fill="none" xmlns="http://www.w3.org/2000/svg">
<path d="M44.4268 0.753571C44.0735 0.923687 43.5893 1.26392 43.3668 1.49947C42.9481 1.94439 32.283 21.1807 31.9821 22.0313C31.6026 23.0782 31.8381 24.2297 32.6102 25.1065C33.0028 25.5514 33.801 26.0618 36.1172 27.3311L39.1008 28.9799L38.0016 30.969C37.3996 32.0682 36.3528 33.9526 35.6854 35.1827C34.6385 37.1063 34.3375 37.5381 33.4346 38.4672C32.2176 39.7104 31.0791 40.3254 29.378 40.6788L28.3311 40.8881L27.86 40.3778C27.4543 39.9067 23.6856 33.3114 23.6856 33.0497C23.6856 32.9842 24.6408 32.4215 25.8055 31.7803C27.9647 30.5895 28.7891 29.9876 29.1162 29.3463C29.4434 28.7313 29.5612 27.9069 29.4434 27.2526C29.2994 26.5067 20.6235 10.6858 19.9822 10.0053C19.7467 9.76978 19.328 9.45572 19.0401 9.32486C18.3465 8.99771 17.1164 8.99771 16.4098 9.32486C16.1088 9.46881 12.628 11.3532 8.68909 13.5254C0.837522 17.8307 0.484201 18.0794 0.130881 19.3356C-0.196267 20.5395 -0.0523222 20.9583 2.08069 24.8317C3.15373 26.7815 5.15588 30.4063 6.51682 32.8926C7.89084 35.379 9.19944 37.6297 9.4219 37.9045C10.1809 38.8075 11.4371 39.2131 12.5494 38.9122C12.8766 38.8336 14.9965 37.7344 17.2604 36.4913C19.5373 35.235 21.4871 34.1881 21.5918 34.1489C21.7358 34.0835 22.2592 34.934 23.6594 37.4596C24.6932 39.3309 25.6485 41.0059 25.7924 41.176L26.041 41.5032L25.3606 41.8303C24.9811 42.0135 24.4184 42.3145 24.1174 42.5108L23.5547 42.851L23.3977 42.4846C23.0705 41.7256 20.8852 37.7868 20.6365 37.512C20.0215 36.8184 18.7391 37.4073 18.883 38.2971C18.9223 38.5327 19.3541 39.4225 19.8383 40.2862C20.9768 42.3145 21.7227 43.8717 21.7227 44.1989C21.7227 44.3428 21.461 44.7878 21.1338 45.2065C19.4719 47.3133 18.5821 49.9174 18.5821 52.6262C18.5951 58.07 22.2069 62.7286 27.5459 64.1942C29.0377 64.5999 31.9166 64.5999 33.4346 64.1811C37.6483 63.0426 40.8151 59.9282 42.0321 55.7014C42.2807 54.8377 42.333 54.3667 42.333 52.6524C42.333 50.4147 42.2153 49.7997 41.417 47.8237C40.5141 45.586 40.3832 43.8979 40.959 42.0135C41.1422 41.4116 45.5783 33.0758 45.8662 32.7749C45.8924 32.7487 47.2272 33.4553 48.8106 34.3452C50.4071 35.2219 52.0035 36.0202 52.3699 36.1118C53.4823 36.4128 54.8039 35.9809 55.4975 35.1042C55.7069 34.8555 57.0809 32.4477 58.5727 29.752C65.7961 16.653 66.7252 14.9387 66.8692 14.4938C67.2356 13.4077 66.7121 11.8243 65.783 11.1176C65.2203 10.6989 47.3057 0.832088 46.7168 0.622711C45.9971 0.360992 45.1596 0.400253 44.4268 0.753571ZM46.6383 2.91275C47.0047 3.12213 51.1399 5.39908 55.8115 7.96392C60.4963 10.5419 64.4221 12.7272 64.5399 12.8319C64.9586 13.1983 64.9455 13.7086 64.5268 14.5462C64.3043 14.978 64.0688 15.3706 64.0033 15.4098C63.9117 15.4753 47.8422 6.72076 44.5184 4.81021L43.9688 4.48306L44.309 3.86802C44.7408 3.09595 45.3297 2.53326 45.683 2.53326C45.8401 2.53326 46.2719 2.70338 46.6383 2.91275ZM53.1289 11.9813C58.4942 14.9387 62.891 17.3727 62.9172 17.3858C62.9826 17.4512 61.7133 19.6758 61.6086 19.6758C61.5563 19.6758 58.2586 17.8831 54.2805 15.6846C49.1246 12.845 46.9262 11.6934 46.6383 11.6934C46.0364 11.6934 45.6176 12.086 45.6176 12.6487C45.6176 12.8973 45.6961 13.1983 45.7877 13.303C45.8793 13.4208 49.2424 15.3182 53.2729 17.5428C58.7951 20.5919 60.5748 21.6256 60.5094 21.7696C60.2738 22.3977 53.9926 33.6516 53.7571 33.8348C53.6131 33.9657 53.3121 34.0704 53.1028 34.0704C52.828 34.0704 49.8182 32.4739 43.4584 28.9669C34.0758 23.7979 33.8926 23.6801 33.8926 22.9997C33.8926 22.8034 40.3178 10.9999 40.5664 10.7251C40.6319 10.6727 41.2338 10.9213 41.9143 11.2878C42.5947 11.6542 43.3014 11.9551 43.4977 11.9551C44.2174 11.9551 44.7147 11.0391 44.3614 10.3848C44.2828 10.2409 43.6678 9.82212 42.9873 9.45572C42.3069 9.08931 41.7442 8.73599 41.7442 8.65748C41.7442 8.52662 42.5947 6.91705 42.8303 6.61607C42.9088 6.52447 43.0528 6.48521 43.1705 6.52447C43.2883 6.56373 47.7637 9.02388 53.1289 11.9813ZM18.3334 11.3401C18.4381 11.4317 18.6998 11.7719 18.8961 12.1122L19.2494 12.7141L17.967 13.4338C13.4262 15.9725 2.83967 21.7827 2.8135 21.7434C2.65647 21.5733 2.09377 20.3825 2.09377 20.2124C2.10686 19.6104 2.60412 19.3094 9.89299 15.279C17.4043 11.1438 17.8231 10.9475 18.3334 11.3401ZM20.8459 15.6192L21.317 16.4829L15.533 19.6628C12.3531 21.4163 9.64436 22.9604 9.52658 23.1044C9.00315 23.7063 9.50041 24.7794 10.2856 24.7794C10.508 24.7794 12.8635 23.5493 16.4098 21.5995C19.5766 19.859 22.2199 18.4327 22.2723 18.4327C22.3377 18.4327 23.5024 20.461 24.8633 22.9473C27.3758 27.5012 27.5721 27.9723 27.1926 28.4827C27.101 28.6004 23.6987 30.5372 19.6289 32.7749C14.2899 35.7192 12.1176 36.8577 11.8035 36.8577C11.5156 36.8708 11.2801 36.7661 11.0707 36.5567C10.9006 36.3735 9.67053 34.2405 8.33576 31.8065L5.91487 27.3965L6.88323 26.86C7.41975 26.559 7.94319 26.2057 8.04787 26.0487C8.47971 25.4336 8.15256 24.6354 7.39358 24.4391C7.15803 24.3868 6.79162 24.5176 5.9803 24.9495L4.88108 25.5383L4.38381 24.6223C4.10901 24.112 3.95198 23.667 4.00432 23.6016C4.06975 23.5362 6.15041 22.3715 8.63674 20.9975C11.1231 19.6366 14.7479 17.6344 16.6846 16.5614C18.6344 15.4883 20.2571 14.6378 20.2963 14.6901C20.3356 14.7294 20.5842 15.1481 20.8459 15.6192ZM43.55 31.4139C43.7725 31.5317 43.9688 31.6756 43.9688 31.728C43.9688 31.7934 43.0528 33.4946 41.9143 35.536C40.7889 37.5774 39.6766 39.645 39.441 40.1553C38.3156 42.5239 38.1848 45.1803 39.0877 47.6143C40.1346 50.467 40.2 50.7288 40.2785 52.129C40.4225 55.1649 39.4018 57.6643 37.1641 59.7711C35.2666 61.5377 33.1074 62.3883 30.4903 62.3883C28.6713 62.3883 27.7553 62.1659 26.0803 61.3545C22.8088 59.745 20.6758 56.2772 20.6758 52.5608C20.6889 47.9022 24.1436 43.7801 28.7237 42.9688C31.4063 42.4846 33.0813 41.7518 34.5338 40.404C35.8032 39.2262 36.078 38.8075 38.3418 34.7247C39.428 32.7487 40.4748 30.8774 40.6449 30.5764L40.9721 30.0137L42.0451 30.6157C42.634 30.9428 43.3145 31.2962 43.55 31.4139Z" fill="white"/>
<path d="M46.1934 18.4066C45.6961 18.6552 45.4737 19.2048 45.6699 19.689C45.8924 20.2125 46.1541 20.3302 47.0701 20.3302C47.5936 20.3302 47.96 20.4087 48.2479 20.5919C49.5434 21.3771 49.2162 23.34 47.7375 23.7457C47.3188 23.8503 47.1356 23.8242 46.6514 23.6148C46.1279 23.3792 46.0102 23.2484 45.683 22.5156C45.2904 21.6519 45.1203 21.508 44.5053 21.508C43.6416 21.508 43.3145 22.5941 43.8641 23.7195C44.5184 25.0673 45.8008 25.8656 47.3057 25.8787C48.8106 25.8787 49.949 25.2113 50.7473 23.8634C51.0613 23.34 51.1006 23.1437 51.1006 22.0968C51.1006 21.1023 51.0483 20.8275 50.7735 20.2779C50.3678 19.4796 49.5041 18.7076 48.719 18.4459C47.9862 18.1972 46.6514 18.171 46.1934 18.4066Z" fill="white"/>
<path d="M15.075 24.5962C13.8842 25.1851 13.2299 26.2582 13.2168 27.5929C13.2168 29.8437 15.3367 31.4925 17.4436 30.8775C18.4119 30.6027 19.1055 30.0531 19.5635 29.2156C19.9037 28.6136 19.9561 28.3781 19.943 27.5929C19.943 26.5199 19.6682 25.8918 18.883 25.1459C18.2157 24.5046 17.5875 24.256 16.5799 24.256C15.9518 24.256 15.5854 24.3345 15.075 24.5962ZM17.3389 26.5591C17.81 26.8601 17.9801 27.5275 17.7446 28.0902C17.3912 28.9408 16.3575 29.124 15.6901 28.4566C14.617 27.3835 16.0565 25.7216 17.3389 26.5591Z" fill="white"/>
<path d="M29.2471 45.5467C28.1479 45.7954 27.716 46.0178 27.5328 46.4497C27.3104 46.9731 27.4543 47.4442 27.9254 47.7452C28.2264 47.9415 28.3311 47.9415 29.2602 47.7452C31.0399 47.3395 32.5971 47.7452 33.8664 48.9229C37.2557 52.0505 35.0834 57.6251 30.4772 57.6251C28.3311 57.6251 26.3289 56.1725 25.7008 54.1442C25.426 53.2805 25.4391 51.8149 25.7139 51.0821C26.1981 49.7866 26.2373 49.5249 26.0279 49.1454C25.5438 48.2686 24.5492 48.4911 24.0258 49.5772C23.5285 50.6372 23.3846 51.3046 23.3715 52.587C23.3584 55.793 25.3998 58.5411 28.4619 59.444C29.7574 59.8366 31.6941 59.7842 32.9111 59.3524C35.2274 58.5018 36.9678 56.4866 37.4912 54.0133C37.7268 52.8749 37.7268 52.2991 37.4912 51.1737C36.9154 48.4518 34.6385 46.1487 31.9559 45.5991C31.2754 45.4551 29.7705 45.429 29.2471 45.5467Z" fill="white"/>
</svg>
