<svg width="56" height="54" viewBox="0 0 56 54" fill="none" xmlns="http://www.w3.org/2000/svg">
<path d="M22.0383 2.25179L22.004 4.49219L21.3181 4.65222C19.1806 5.14374 16.8373 6.09248 14.8713 7.29269L14.0368 7.79564L12.4708 6.24108L10.9163 4.68651L7.77283 7.82994L4.62941 10.9734L6.18397 12.5394L7.74997 14.1168L7.40705 14.6312C6.38972 16.1743 5.13235 19.1691 4.62941 21.2266L4.43509 22.0611H2.21754H0V26.519V30.977H2.21754H4.43509L4.62941 31.8C5.13235 33.8689 6.38972 36.8637 7.40705 38.4069L7.74997 38.9213L6.18397 40.4987L4.62941 42.0647L7.77283 45.2081L10.9163 48.3515L12.4708 46.797L14.0368 45.2424L14.9284 45.7911C16.6544 46.8313 18.872 47.7571 20.9752 48.2944L22.004 48.5573L22.0383 50.7977L22.0611 53.0381H26.4619H30.8627L30.8856 50.7977L30.9199 48.5573L31.9486 48.2944C33.5946 47.8829 34.932 47.3799 34.8749 47.197C34.3033 45.3338 34.2462 44.9795 34.2462 43.0249L34.2347 41.0702L33.4232 41.4474C32.303 41.9504 30.5998 42.4876 29.3424 42.7162C27.9136 42.9791 25.0102 42.9791 23.5814 42.7162C19.4206 41.9504 15.6028 39.5957 13.0766 36.2351C11.5449 34.2004 10.3104 31.2056 9.93322 28.6337C9.75033 27.3763 9.78462 24.7244 9.99037 23.5471C11.2935 16.1857 16.9173 10.7676 24.3244 9.70456C25.6618 9.52167 28.5652 9.63597 29.914 9.93317C34.2233 10.8819 37.8925 13.3738 40.3273 16.9744C42.9335 20.8494 43.7908 25.8103 42.6363 30.3711C42.4534 31.1027 42.3162 31.72 42.3391 31.7428C42.3505 31.7657 42.5677 31.7085 42.8192 31.6171C43.9279 31.2284 46.1112 31.0684 47.7572 31.2627C48.363 31.3313 48.4659 31.3199 48.4659 31.1599C48.4659 30.9998 48.7288 30.977 50.6949 30.977H52.9238V26.519V22.0611H50.7177H48.5002L48.1801 20.8266C48.0087 20.1522 47.7 19.1577 47.4828 18.609C47.0599 17.5003 45.894 15.1455 45.4482 14.5169L45.1739 14.1168L46.7284 12.5394L48.2944 10.9734L45.151 7.82994L42.0076 4.68651L40.453 6.24108L38.8984 7.79564L38.144 7.32699C36.3494 6.22964 34.2119 5.32663 32.1887 4.80082L30.9199 4.48076L30.8856 2.24036L30.8627 -4.95911e-05H26.4619H22.0611L22.0383 2.25179Z" fill="white"/>
<path d="M24.1987 13.6709C16.563 15.054 11.8993 22.884 14.3112 30.291C15.6028 34.2917 19.0777 37.5609 23.1928 38.6468C27.6393 39.8127 32.4516 38.4753 35.6179 35.1833C37.7782 32.9429 38.9099 30.4625 39.2071 27.3648C39.7557 21.5123 35.9493 15.7855 30.3483 14.0709C28.4737 13.488 26.0618 13.3394 24.1987 13.6709ZM27.1706 16.3914L27.4907 16.6657L27.525 20.7121L27.5593 24.7586L27.9593 24.9072C28.8166 25.2158 28.8395 26.2789 28.0051 26.8047C27.6278 27.0447 27.5707 27.1361 27.5135 27.6848C27.4564 28.1649 27.3649 28.3592 27.0906 28.5993C26.6562 28.9993 26.2905 28.9993 25.8447 28.6221C25.6503 28.4621 25.4217 28.3478 25.3417 28.3821C25.2731 28.4049 24.2558 28.9765 23.0899 29.6509C21.8325 30.371 20.8609 30.8625 20.6666 30.8625C20.4951 30.8625 20.2208 30.7368 20.0379 30.5882C19.7979 30.371 19.7178 30.211 19.7178 29.8566C19.7178 29.6052 19.7864 29.3308 19.8664 29.228C19.9465 29.1365 21.1467 28.4049 22.5526 27.6048C23.9472 26.7932 25.1817 26.0617 25.296 25.9702C25.4789 25.8102 25.4903 25.4444 25.4903 21.2379V16.6771L25.7761 16.4028C26.1419 16.0256 26.7363 16.0256 27.1706 16.3914Z" fill="white"/>
<path d="M45.151 33.2744C40.8417 33.663 37.2296 36.9665 36.418 41.253C35.8122 44.4421 36.7724 47.597 39.0813 49.986C40.956 51.9406 43.3335 52.9351 46.1112 52.9351C48.7517 52.9351 50.9006 52.1121 52.7752 50.3632C55.9758 47.3798 56.8903 42.8875 55.0842 39.0011C53.7811 36.1892 51.3464 34.166 48.443 33.503C47.3 33.2401 46.2941 33.1715 45.151 33.2744ZM51.6779 38.441C52.1237 38.7382 52.3866 39.3669 52.2723 39.927C52.2266 40.2128 51.4493 41.0472 48.5345 43.9849C46.5227 46.0195 44.7281 47.757 44.5566 47.8484C44.1794 48.0427 43.665 48.0542 43.265 47.8713C42.8192 47.677 39.5729 43.5276 39.4928 43.0476C39.3214 42.156 40.0987 41.3215 41.0131 41.413C41.6075 41.4816 41.7218 41.573 42.9563 43.1161C43.4936 43.802 43.9622 44.3507 43.9965 44.3507C44.0422 44.3507 45.3568 43.059 46.9228 41.4816C48.5002 39.9041 49.9404 38.5096 50.1233 38.3953C50.592 38.0981 51.1978 38.121 51.6779 38.441Z" fill="white"/>
</svg>
