<svg width="52" height="39" viewBox="0 0 52 39" fill="none" xmlns="http://www.w3.org/2000/svg">
<path d="M5.95087 0.104338C5.83036 0.265469 6.5735 0.990557 8.7025 2.82342C9.44565 3.46795 10.1486 4.15275 10.249 4.33403C10.47 4.77714 9.80717 8.20117 9.38539 8.86584C9.14437 9.22838 8.68242 9.38951 7.11579 9.69163L5.14747 10.0542L2.75736 7.55665L0.347168 5.05912L0.487763 6.46901C0.748867 9.34923 1.91379 11.8266 3.68127 13.2164C4.0428 13.5185 5.1073 13.8408 6.99528 14.2234C8.50165 14.5256 10.0683 14.9284 10.47 15.0895C10.8516 15.2708 12.0768 16.1772 13.1614 17.1238L15.1498 18.8157L15.4109 18.2316C15.5314 17.9295 15.5916 17.3454 15.5314 16.9828C15.4109 16.1973 15.7322 15.4319 16.1942 15.4319C16.6762 15.4319 16.3147 14.9687 14.6677 13.5588L13.1814 12.2496L12.1571 12.8337C10.8516 13.5789 10.5905 13.5789 11.5144 12.8538C12.4785 12.0683 13.2015 11.1821 13.784 10.034L14.266 9.08739L14.1455 10.4167L14.025 11.7259L15.9732 13.5789C17.0578 14.6061 18.0822 15.4319 18.283 15.4319C18.504 15.4319 18.745 15.1298 18.986 14.5256L19.3274 13.5991L17.4997 11.8669C16.4754 10.9203 15.5113 9.85276 15.3305 9.51036C15.1297 9.12767 14.9489 8.06018 14.8485 6.83156C14.7481 5.54251 14.5673 4.47502 14.3062 3.91106C13.8844 2.92413 12.6793 1.75593 11.4742 1.13155C10.1687 0.466883 6.1718 -0.278349 5.95087 0.104338Z" fill="#FF001D"/>
<path d="M42.2644 0.406458C41.1396 0.769003 39.0508 1.91706 38.3679 2.54144C37.7051 3.16583 37.4641 3.97148 37.1628 6.56972C37.0423 7.61707 36.8616 8.74499 36.741 9.08739C36.5402 9.75206 35.6765 10.7591 33.9091 12.3503C33.2663 12.9143 32.7441 13.5386 32.7441 13.6998C32.7441 14.2436 33.3869 15.6333 33.6279 15.6333C33.7484 15.6132 34.7928 14.727 35.9376 13.6393L38.0265 11.6856L37.8256 10.5779C37.7051 9.97361 37.6248 9.47008 37.665 9.42979C37.685 9.38951 37.9863 9.85276 38.3278 10.457C38.6692 11.0612 39.3722 11.9273 39.9145 12.3906C40.9589 13.2768 40.8384 13.4782 39.6935 12.7934C39.3119 12.5718 38.8299 12.4309 38.629 12.4913C38.4282 12.5517 37.6449 13.1962 36.8616 13.9012L35.4556 15.1902L36.018 15.6333C36.5804 16.0764 36.7009 16.6001 36.3594 17.2446C36.1988 17.5266 36.2389 17.7885 36.5201 18.2316L36.8816 18.8157L38.5688 17.3252C40.8585 15.3514 42.0033 14.7673 44.6947 14.2234C47.7878 13.6192 48.792 13.1157 49.6958 11.7662C50.5394 10.5174 51.383 8.04004 51.5436 6.28774L51.6642 5.05912L49.1535 7.55665L46.6429 10.0542L45.0562 9.73191C42.3648 9.1881 42.5054 9.30894 41.923 6.87184C41.6418 5.70364 41.4409 4.616 41.5012 4.47502C41.5614 4.33403 42.5858 3.38738 43.8109 2.34003C45.016 1.31282 46.0605 0.386316 46.1207 0.28561C46.2814 0.0237713 43.1883 0.124479 42.2644 0.406458Z" fill="#FF001D"/>
<path d="M22.4406 13.2768L20.6731 13.4782L19.8296 15.1701C19.0061 16.8217 18.9659 16.8619 18.3834 16.7411C18.0621 16.6807 17.4194 16.58 16.9775 16.5195C15.5716 16.3383 16.7365 16.8619 18.3634 17.1439L19.7894 17.3856L18.5843 17.6273C16.8972 17.9697 16.4955 18.1711 16.2344 18.7955C16.1138 19.1178 15.9532 21.2326 15.8929 23.6496L15.7724 27.9196H16.9373H18.0822V26.7715C18.0822 25.9054 18.1826 25.5227 18.4839 25.2005L18.9057 24.7574L17.8813 24.8581C16.7164 24.9588 16.616 24.8379 17.4997 24.3948C18.8052 23.71 31.9408 23.6294 34.1099 24.2941C35.2548 24.6567 35.1945 24.9789 34.0095 24.8178L33.0655 24.6969L33.5074 25.1602C33.8488 25.5227 33.9493 25.8651 33.9493 26.7715V27.9196H35.0941H36.2189L36.0783 23.7906C35.9176 18.8962 35.7368 18.1711 34.5719 17.8489C34.1702 17.7482 33.6882 17.6475 33.5074 17.6475C32.7241 17.6475 33.2061 17.2648 34.2505 17.0432C34.8531 16.9224 35.3954 16.721 35.4556 16.6202C35.6163 16.3987 35.2749 16.3987 34.1903 16.6404C33.0254 16.9224 32.6839 16.7008 32.1416 15.2305C31.8805 14.5457 31.4989 13.8609 31.2579 13.7199C30.7758 13.3976 27.3012 12.9948 25.4333 13.0351C24.7705 13.0552 23.4047 13.1559 22.4406 13.2768ZM30.3742 13.8206C30.9767 14.0019 31.1976 14.2234 31.6194 15.0694C32.2822 16.4188 32.3023 16.9224 31.6797 16.7612C29.4904 16.2174 24.891 16.1167 22.0188 16.5397C19.5685 16.9022 19.689 16.9022 19.689 16.5195C19.689 16.1167 20.8137 14.1026 21.1552 13.881C21.8983 13.4178 28.8075 13.3775 30.3742 13.8206ZM30.4344 17.0432C31.057 17.1842 30.816 17.2043 29.3498 17.1439C28.3054 17.0835 26.2367 17.0231 24.7303 17.0029C22.7218 16.9828 22.2397 16.9425 22.9026 16.8217C24.0273 16.6404 29.3498 16.7814 30.4344 17.0432ZM19.468 18.574C20.2112 18.8761 20.8941 19.581 20.8941 20.0644C20.8941 20.6485 18.0018 20.0241 17.5399 19.3393C16.8771 18.3121 17.8612 17.9294 19.468 18.574ZM34.6924 18.574C34.7326 18.7149 34.5719 19.0574 34.3108 19.3393C33.9694 19.7422 33.4873 19.9637 32.463 20.1651C31.6998 20.3263 31.0169 20.427 30.9767 20.3665C30.7758 20.1651 31.6998 18.9768 32.3425 18.6142C33.1057 18.2114 34.5719 18.1913 34.6924 18.574ZM24.8508 18.7552C25.3931 18.8761 25.835 19.6213 25.5538 19.9033C25.4333 20.0241 24.8508 20.0241 23.9068 19.8831C23.1034 19.7422 22.4004 19.6817 22.3603 19.7422C22.3 19.8026 22.4205 20.1047 22.6214 20.4471C22.8222 20.7895 22.9226 21.1118 22.8624 21.1923C22.6013 21.4542 21.8381 20.7895 21.4765 20.004C20.8338 18.574 20.874 18.5337 22.762 18.6142C23.6658 18.6344 24.6098 18.7149 24.8508 18.7552ZM30.9365 18.9768C30.9365 19.6616 29.7113 21.2729 29.1891 21.2729C28.9883 21.2729 29.0285 21.0513 29.3498 20.4471L29.7716 19.6012L29.0887 19.722C28.7272 19.8026 27.9439 19.9033 27.3815 19.9839C26.2166 20.1248 26.0358 19.9436 26.6384 19.0976C26.9195 18.6948 27.1003 18.6545 28.9481 18.6545C30.6152 18.6545 30.9365 18.6948 30.9365 18.9768ZM19.4078 21.4743C19.9501 21.575 20.8941 21.857 21.4966 22.1188C22.4808 22.5217 22.9427 22.5619 25.9153 22.5619C28.9079 22.5619 29.3498 22.5217 30.4344 22.0987C31.0972 21.857 32.0412 21.5549 32.5232 21.4542C33.0053 21.3535 33.7083 21.0916 34.0899 20.8499C34.4715 20.6082 34.833 20.4672 34.8933 20.5277C34.9535 20.5881 34.9334 20.9909 34.8531 21.434C34.7527 22.1188 34.6522 22.2195 34.1903 22.2397C33.889 22.2397 33.2463 22.4008 32.7643 22.5619C31.76 22.9245 31.2579 22.9648 31.4387 22.6828C31.5993 22.421 31.519 22.421 30.6754 22.7835C30.113 23.0252 29.0485 23.0856 26.0358 23.0856C22.5812 23.0856 21.9987 23.0453 21.0949 22.6828C19.8898 22.1994 19.5685 22.1793 20.3518 22.6022C21.1752 23.0453 20.9141 23.146 19.8697 22.7634C19.3877 22.6022 18.5843 22.3807 18.0822 22.3203L17.1783 22.1793L17.1181 21.1923L17.0578 20.2256L17.7407 20.7492C18.1023 21.0312 18.8655 21.3535 19.4078 21.4743Z" fill="#FF001D"/>
<path d="M19.8697 25.2004C19.2672 25.6637 19.1668 25.845 19.0663 26.9125C18.9057 28.6245 18.7651 28.7252 16.6762 28.7252H14.9088L13.5631 29.8732C12.1169 31.122 12.137 31.0616 12.7597 32.7535C13.0208 33.4383 13.081 34.0224 12.9806 35.11C12.9203 35.9157 12.9003 36.5803 12.9605 36.5803C13.0007 36.5803 13.322 36.0365 13.6836 35.3718C14.3865 34.0224 16.395 32.0082 21.3359 27.6376C22.9628 26.1874 24.2482 24.9587 24.188 24.858C24.1277 24.7775 23.2842 24.6969 22.3201 24.6969C20.7535 24.6969 20.4924 24.7573 19.8697 25.2004Z" fill="#FF001D"/>
<path d="M27.723 24.858C27.723 24.9386 29.8921 26.9527 32.5634 29.3294C37.1629 33.4383 37.4441 33.7404 38.1671 35.1704L38.9103 36.6609L38.9304 34.9489C38.9304 33.7202 39.0509 32.9549 39.3521 32.1895L39.7739 31.1422L38.9304 30.3768C37.183 28.7856 37.0424 28.7252 35.2347 28.7252C33.7484 28.7252 33.5476 28.6849 33.2664 28.2821C33.0856 28.0202 32.945 27.416 32.945 26.8923C32.945 25.6234 32.5032 25.0997 31.2177 24.8782C29.9323 24.6768 27.723 24.6566 27.723 24.858Z" fill="#FF001D"/>
<path d="M13.0609 26.2276C11.2935 27.7785 10.2892 28.3021 9.04396 28.3223L8.14014 28.3424L9.08413 28.705C9.60634 28.9265 10.3896 29.3696 10.8315 29.712C11.2533 30.0544 11.7153 30.3364 11.8157 30.3364C11.9362 30.3364 12.6592 29.7725 13.4426 29.1078L14.8686 27.859V26.3887C14.8686 25.5629 14.8083 24.8983 14.728 24.8983C14.6276 24.9184 13.8844 25.5025 13.0609 26.2276Z" fill="#FF001D"/>
<path d="M37.1628 26.3686V27.8792L38.5889 29.1078C39.3521 29.7926 40.0952 30.3364 40.2158 30.3364C40.3162 30.3364 40.758 30.0544 41.1798 29.7322C41.6016 29.3898 42.3448 28.9467 42.8067 28.7251L43.6904 28.3223H42.9875C41.7623 28.3223 40.979 27.9799 39.5329 26.7714C38.7496 26.1269 37.906 25.4421 37.6449 25.2407L37.1628 24.858V26.3686Z" fill="#FF001D"/>
<path d="M3.5206 29.0474C2.67703 29.4704 1.31126 30.8602 0.568113 32.0082C-0.0344353 32.9347 -0.0545202 33.0354 0.0459045 34.7273C0.166414 36.681 0.688622 38.2118 1.3916 38.5743C2.07448 38.957 2.23516 38.3125 1.79329 37.0234C1.03007 34.7877 1.35143 33.7807 3.38 32.0082L4.54493 30.981L6.21198 31.2428C7.1158 31.404 8.07988 31.6658 8.34098 31.8269C8.90336 32.1895 9.74693 33.9216 9.92769 35.0697C10.0482 35.7545 9.96786 36.0969 9.46574 37.0637C9.1243 37.7082 8.84311 38.3125 8.84311 38.4132C8.84311 38.5139 9.46574 38.5944 10.2491 38.5944H11.6349L12.0567 37.2651C12.5387 35.6941 12.5588 34.6064 12.1571 33.2368C11.4943 31.0011 10.2089 29.692 8.03971 29.0474C6.65385 28.6245 4.324 28.6245 3.5206 29.0474Z" fill="#FF001D"/>
<path d="M43.9516 29.0071C41.9631 29.712 40.7781 30.8198 39.9145 32.7131C39.332 34.0021 39.3521 36.2781 39.9346 37.6276L40.3564 38.5944H41.6619C42.3849 38.5944 43.0076 38.5339 43.0678 38.4332C43.108 38.3527 42.8469 37.7887 42.4653 37.1845C41.6619 35.9156 41.6619 35.2509 42.4854 33.4382C43.108 32.0484 43.831 31.565 45.8395 31.2428L47.4865 30.9809L48.9728 32.3304L50.439 33.6597L50.3386 35.271C50.2582 36.1573 50.1578 37.2852 50.0975 37.7484C49.977 38.5339 50.0172 38.6346 50.3386 38.5541C50.921 38.4534 51.8851 36.3385 51.9855 34.9488C52.106 33.3979 51.4834 32.0887 49.7159 30.1753L48.3702 28.7251H46.5425C45.5182 28.7452 44.3733 28.8661 43.9516 29.0071Z" fill="#FF001D"/>
</svg>
